<?xml version="1.0" encoding="utf-8"?>
<!-- Generator: Adobe Illustrator 20.1.0, SVG Export Plug-In . SVG Version: 6.00 Build 0)  -->
<svg version="1.1" xmlns="http://www.w3.org/2000/svg" xmlns:xlink="http://www.w3.org/1999/xlink" x="0px" y="0px"
	 viewBox="0 0 1440 900" style="enable-background:new 0 0 1440 900;" xml:space="preserve">
<style type="text/css">
	.st0{fill:url(#SVGID_1_);}
	.st1{opacity:0.41;}
	.st2{fill:#F2F2F2;}
	.st3{opacity:0.85;}
	.st4{opacity:0.95;}
	.st5{opacity:0.76;}
	.st6{opacity:0.15;}
	.st7{opacity:0.13;}
	.st8{opacity:6.000000e-02;}
	.st9{fill:url(#SVGID_2_);}
	.st10{opacity:0.9;fill:#101E3A;}
	.st11{fill:#101E3A;}
	.st12{opacity:0.33;fill:#101E3A;}
	.st13{opacity:0.66;fill:#101E3A;}
	.st14{opacity:0.6;}
	.st15{opacity:5.000000e-02;}
	.st16{fill:url(#SVGID_3_);}
	.st17{opacity:3.000000e-02;}
	.st18{fill:url(#SVGID_4_);}
	.st19{fill:url(#SVGID_5_);}
	.st20{opacity:7.000000e-02;}
	.st21{fill:url(#SVGID_6_);}
	.st22{opacity:4.000000e-02;}
	.st23{fill:url(#SVGID_7_);}
	.st24{fill:#000328;}
	.st25{fill:url(#SVGID_8_);stroke:#000328;stroke-width:2;stroke-miterlimit:10;}
	.st26{fill:url(#SVGID_9_);stroke:#000328;stroke-width:2;stroke-miterlimit:10;}
	.st27{fill:url(#SVGID_10_);}
	.st28{fill:url(#SVGID_11_);stroke:#000328;stroke-width:2;stroke-miterlimit:10;}
	.st29{opacity:0.33;fill:url(#SVGID_12_);}
	.st30{fill:url(#SVGID_13_);}
	.st31{fill:#4D3423;}
	.st32{fill:#F6E1A5;}
	.st33{fill:url(#SVGID_14_);}
	.st34{fill:#F7931E;}
	.st35{fill:#FDE400;}
</style>
<g id="sky">
	<g>
		<linearGradient id="SVGID_1_" gradientUnits="userSpaceOnUse" x1="720" y1="-2.6769" x2="720" y2="897.3231">
			<stop  offset="0" style="stop-color:#101E3A"/>
			<stop  offset="0.429" style="stop-color:#2E3192"/>
			<stop  offset="0.7454" style="stop-color:#296482"/>
		</linearGradient>
		<rect x="0" y="-2.7" class="st0" width="1440" height="900"/>
	</g>
	<g class="st1">
		<polygon class="st2" points="38.7,36.1 37.2,34.6 35.2,35.1 36.1,33.2 35,31.4 37.1,31.6 38.5,30.1 38.9,32.1 40.8,33 39,34 		"/>
	</g>
	<g class="st1">
		<polygon class="st2" points="128.2,61.5 130.2,62.3 131.9,61.1 131.8,63.2 133.5,64.5 131.5,65 130.8,67 129.6,65.2 127.5,65.2 
			128.8,63.5 		"/>
	</g>
	<g class="st1">
		<polygon class="st2" points="216.2,44.7 218,43.6 218.1,41.5 219.7,42.9 221.7,42.3 220.9,44.3 222.1,46 220,45.9 218.7,47.5 
			218.2,45.5 		"/>
	</g>
	<g class="st3">
		<polygon class="st2" points="334.1,35 333.7,37.1 335.2,38.5 333.1,38.8 332.2,40.7 331.3,38.8 329.2,38.5 330.7,37 330.4,35 
			332.2,35.9 		"/>
	</g>
	<g class="st1">
		<polygon class="st2" points="382.2,19.9 383.8,18.6 383.6,16.5 385.4,17.6 387.3,16.8 386.8,18.9 388.2,20.4 386.1,20.6 385,22.4 
			384.2,20.4 		"/>
	</g>
	<g class="st1">
		<polygon class="st2" points="493.9,59.6 493.8,61.7 495.4,62.9 493.4,63.5 492.7,65.4 491.6,63.7 489.5,63.6 490.8,62 490.2,60 
			492.2,60.7 		"/>
	</g>
	<g class="st3">
		<polygon class="st2" points="573.4,70.5 574.2,68.5 573.1,66.8 575.2,66.9 576.5,65.3 577,67.3 578.9,68.1 577.1,69.2 577,71.3 
			575.4,69.9 		"/>
	</g>
	<g class="st1">
		<polygon class="st2" points="795.2,30.7 797.3,30.2 797.9,28.2 799.1,29.9 801.2,29.9 799.9,31.6 800.5,33.6 798.6,32.9 
			796.8,34.1 796.9,32 		"/>
	</g>
	<g class="st1">
		<polygon class="st2" points="875.2,35 876.6,36.6 878.6,36.3 877.6,38.1 878.5,40 876.4,39.6 874.9,41 874.7,38.9 872.8,37.9 
			874.8,37 		"/>
	</g>
	<g class="st1">
		<polygon class="st2" points="937.7,66.6 936.1,65.3 934.1,65.8 934.9,63.8 933.8,62.1 935.9,62.3 937.2,60.7 937.7,62.7 
			939.6,63.5 937.8,64.5 		"/>
	</g>
	<g class="st1">
		<polygon class="st2" points="1034.4,4.5 1036.4,5.1 1038,3.7 1038.1,5.8 1039.9,6.9 1038,7.6 1037.5,9.7 1036.1,8 1034.1,8.2 
			1035.2,6.4 		"/>
	</g>
	<g class="st1">
		<polygon class="st2" points="1137.7,16.1 1139.6,15.2 1139.9,13.1 1141.3,14.6 1143.4,14.2 1142.4,16.1 1143.4,17.9 1141.4,17.6 
			1139.9,19.1 1139.6,17 		"/>
	</g>
	<g class="st1">
		<polygon class="st2" points="1191.2,89.8 1190.6,87.8 1188.6,87.2 1190.3,86 1190.2,83.9 1191.9,85.1 1193.9,84.4 1193.2,86.4 
			1194.5,88.1 1192.4,88.1 		"/>
	</g>
	<g class="st1">
		<polygon class="st2" points="1287,46.7 1286.4,48.7 1287.8,50.3 1285.7,50.4 1284.5,52.1 1283.8,50.2 1281.8,49.7 1283.4,48.4 
			1283.3,46.3 1285,47.4 		"/>
	</g>
	<g class="st1">
		<polygon class="st2" points="1366.2,55.3 1364.6,53.9 1362.6,54.4 1363.4,52.5 1362.3,50.7 1364.4,50.9 1365.7,49.3 1366.2,51.4 
			1368.1,52.2 1366.3,53.2 		"/>
	</g>
	<g class="st1">
		<polygon class="st2" points="47.6,91.2 45.6,90.5 44,91.8 43.9,89.7 42.2,88.6 44.2,87.9 44.8,85.9 46,87.6 48.1,87.5 46.9,89.2 
					"/>
	</g>
	<g class="st4">
		<polygon class="st2" points="202.5,93.8 201.9,95.8 203.3,97.4 201.2,97.5 200.1,99.3 199.4,97.3 197.3,96.8 198.9,95.5 
			198.8,93.4 200.5,94.6 		"/>
	</g>
	<g class="st1">
		<polygon class="st2" points="301,103 302.3,101.4 301.6,99.4 303.6,100.1 305.3,98.8 305.2,100.9 306.9,102.2 304.9,102.8 
			304.3,104.8 303.1,103 		"/>
	</g>
	<g class="st1">
		<polygon class="st2" points="664.4,31.2 666.5,31.5 667.9,29.9 668.3,32 670.2,32.9 668.3,33.9 668.1,35.9 666.6,34.5 664.5,34.9 
			665.4,33 		"/>
	</g>
	<g class="st1">
		<polygon class="st2" points="566,133.2 568.1,133.5 569.6,132 569.9,134.1 571.8,135 569.9,136 569.6,138 568.1,136.5 
			566.1,136.9 567,135 		"/>
	</g>
	<g class="st1">
		<polygon class="st2" points="674.4,128.4 674.2,126.3 672.3,125.3 674.3,124.4 674.7,122.4 676.1,124 678.1,123.7 677.1,125.5 
			678,127.4 675.9,126.9 		"/>
	</g>
	<g class="st4">
		<polygon class="st2" points="773.3,62.4 771.7,63.7 771.8,65.8 770.1,64.6 768.1,65.4 768.7,63.4 767.4,61.8 769.5,61.7 
			770.6,59.9 771.3,61.9 		"/>
	</g>
	<g class="st4">
		<polygon class="st2" points="839.7,104.5 841.7,103.9 842.3,101.9 843.5,103.6 845.6,103.6 844.4,105.3 845,107.2 843.1,106.6 
			841.4,107.8 841.4,105.7 		"/>
	</g>
	<g class="st1">
		<polygon class="st2" points="964.1,74.7 962.1,75.3 961.4,77.3 960.2,75.5 958.1,75.4 959.5,73.8 958.9,71.8 960.8,72.6 
			962.6,71.4 962.4,73.5 		"/>
	</g>
	<g class="st1">
		<polygon class="st2" points="992.5,30.3 992.5,32.4 994.2,33.6 992.2,34.3 991.6,36.3 990.4,34.5 988.3,34.6 989.6,32.9 
			988.9,30.9 990.9,31.6 		"/>
	</g>
	<g class="st1">
		<polygon class="st2" points="1081,119 1082.6,120.4 1084.6,120 1083.7,121.9 1084.8,123.7 1082.7,123.4 1081.3,125 1080.9,122.9 
			1079,122.1 1080.8,121.1 		"/>
	</g>
	<g class="st1">
		<polygon class="st2" points="1170.6,79.2 1169.4,77.5 1167.3,77.4 1168.6,75.8 1168,73.8 1170,74.5 1171.7,73.3 1171.6,75.4 
			1173.3,76.7 1171.2,77.2 		"/>
	</g>
	<g class="st3">
		<polygon class="st2" points="1326.9,115.4 1324.8,115.4 1323.7,117.2 1323,115.2 1321,114.6 1322.6,113.4 1322.5,111.3 
			1324.2,112.5 1326.2,111.7 1325.6,113.7 		"/>
	</g>
	<g class="st1">
		<polygon class="st2" points="1395.1,123.6 1393,123.4 1391.7,125 1391.2,123 1389.3,122.2 1391.1,121.1 1391.2,119.1 
			1392.8,120.4 1394.8,119.9 1394,121.9 		"/>
	</g>
	<g class="st3">
		<polygon class="st2" points="75.4,95.8 75.5,93.7 73.8,92.4 75.8,91.9 76.5,89.9 77.7,91.6 79.7,91.7 78.4,93.3 79.1,95.3 
			77.1,94.6 		"/>
	</g>
	<g class="st1">
		<polygon class="st2" points="138.4,160.8 138.8,158.8 137.3,157.2 139.4,157 140.4,155.2 141.3,157.1 143.3,157.4 141.8,158.8 
			142.1,160.9 140.3,159.9 		"/>
	</g>
	<g class="st1">
		<polygon class="st2" points="251.1,164.7 249,164.5 247.6,166.1 247.2,164 245.3,163.2 247.1,162.2 247.2,160.1 248.8,161.5 
			250.8,161 250,162.9 		"/>
	</g>
	<g class="st1">
		<polygon class="st2" points="287,168 289,168.5 290.6,167.1 290.7,169.2 292.6,170.2 290.6,171.1 290.2,173.1 288.8,171.5 
			286.7,171.7 287.8,170 		"/>
	</g>
	<g class="st1">
		<polygon class="st2" points="420.5,129.6 418.9,131 419.2,133.1 417.4,132 415.5,132.9 415.9,130.9 414.5,129.3 416.6,129.1 
			417.6,127.3 418.5,129.2 		"/>
	</g>
	<g class="st1">
		<polygon class="st2" points="480.5,140.7 482.6,140.8 483.9,139.2 484.4,141.2 486.4,142 484.6,143.1 484.5,145.2 482.9,143.8 
			480.9,144.4 481.7,142.4 		"/>
	</g>
	<g class="st1">
		<polygon class="st2" points="767.7,178.3 767.5,176.3 765.6,175.3 767.5,174.4 767.9,172.3 769.3,173.9 771.4,173.6 770.4,175.4 
			771.3,177.3 769.2,176.9 		"/>
	</g>
	<g class="st1">
		<polygon class="st2" points="860.5,156.2 859.5,154.3 857.4,154 858.9,152.6 858.6,150.5 860.4,151.4 862.3,150.5 861.9,152.5 
			863.4,154 861.4,154.3 		"/>
	</g>
	<g class="st3">
		<polygon class="st2" points="942.2,197.6 944,198.7 945.9,197.9 945.4,199.9 946.7,201.6 944.6,201.6 943.5,203.4 942.8,201.5 
			940.7,200.9 942.4,199.6 		"/>
	</g>
	<g class="st1">
		<polygon class="st2" points="1055.9,170 1057.3,168.4 1056.7,166.3 1058.7,167.2 1060.4,166 1060.3,168.1 1061.9,169.4 
			1059.9,169.9 1059.1,171.9 1058,170.1 		"/>
	</g>
	<g class="st3">
		<polygon class="st2" points="1138.5,145.2 1136.7,144.2 1134.8,145.2 1135.2,143.1 1133.7,141.6 1135.8,141.4 1136.7,139.5 
			1137.6,141.4 1139.7,141.7 1138.2,143.1 		"/>
	</g>
	<g class="st1">
		<polygon class="st2" points="55,185.8 53.1,186.5 52.6,188.6 51.3,187 49.2,187.2 50.3,185.4 49.5,183.5 51.5,184 53.1,182.6 
			53.2,184.7 		"/>
	</g>
	<g class="st4">
		<polygon class="st2" points="321.3,210.1 323.2,209.2 323.6,207.2 325,208.8 327.1,208.5 326.1,210.3 326.9,212.2 324.9,211.8 
			323.4,213.2 323.2,211.1 		"/>
	</g>
	<g class="st1">
		<polygon class="st2" points="380.4,216.7 382.3,217.6 384.1,216.6 383.8,218.7 385.4,220.1 383.3,220.4 382.4,222.3 381.4,220.5 
			379.4,220.2 380.8,218.7 		"/>
	</g>
	<g class="st3">
		<polygon class="st2" points="506.7,213.3 504.7,212.6 503.1,213.9 503.1,211.8 501.4,210.6 503.4,209.9 504,207.9 505.2,209.6 
			507.3,209.6 506,211.3 		"/>
	</g>
	<g class="st1">
		<polygon class="st2" points="572.7,227.6 573.4,225.7 572.2,224 574.3,224 575.5,222.4 576.1,224.4 578.1,225 576.3,226.2 
			576.3,228.3 574.7,227 		"/>
	</g>
	<g class="st1">
		<polygon class="st2" points="1032.5,235.8 1033.6,234 1032.9,232.1 1034.9,232.6 1036.5,231.3 1036.6,233.4 1038.3,234.5 
			1036.4,235.3 1035.8,237.3 1034.6,235.6 		"/>
	</g>
	<g class="st1">
		<polygon class="st2" points="1107.6,228.6 1105.5,229 1104.7,230.9 1103.7,229 1101.6,228.8 1103.1,227.3 1102.6,225.3 
			1104.5,226.2 1106.3,225.1 1106.1,227.2 		"/>
	</g>
	<g class="st1">
		<polygon class="st2" points="1208.9,154.3 1208.8,152.2 1207,151.2 1208.9,150.4 1209.4,148.4 1210.7,150 1212.8,149.8 
			1211.7,151.6 1212.5,153.5 1210.5,153 		"/>
	</g>
	<g class="st1">
		<polygon class="st2" points="1295.1,224 1295.5,221.9 1294,220.5 1296.1,220.2 1297,218.3 1297.9,220.2 1300,220.5 1298.5,221.9 
			1298.9,224 1297,223 		"/>
	</g>
	<g class="st1">
		<polygon class="st2" points="1373.3,182.3 1375.4,182 1376.4,180.2 1377.3,182 1379.4,182.3 1377.8,183.8 1378.2,185.9 
			1376.3,184.9 1374.5,185.9 1374.8,183.8 		"/>
	</g>
	<g class="st1">
		<polygon class="st2" points="43.7,249.1 44.4,251.1 46.5,251.6 44.8,252.9 45,255 43.2,253.9 41.3,254.7 41.9,252.6 40.5,251 
			42.6,250.9 		"/>
	</g>
	<g class="st4">
		<polygon class="st2" points="228.1,252.3 226.3,251.2 224.4,252 224.9,250 223.5,248.4 225.6,248.2 226.6,246.4 227.4,248.4 
			229.5,248.8 227.9,250.2 		"/>
	</g>
	<g class="st1">
		<polygon class="st2" points="248.1,308.1 246.1,308.6 245.3,310.5 244.2,308.8 242.2,308.7 243.5,307.1 243,305 244.9,305.8 
			246.7,304.7 246.5,306.8 		"/>
	</g>
	<g class="st1">
		<polygon class="st2" points="309.3,303 307.2,302.6 305.7,304 305.5,302 303.6,301 305.5,300.1 305.9,298 307.3,299.6 
			309.4,299.3 308.4,301.1 		"/>
	</g>
	<g class="st1">
		<polygon class="st2" points="356.7,164 355.8,162.1 353.7,161.8 355.2,160.4 354.9,158.3 356.8,159.3 358.6,158.4 358.2,160.4 
			359.7,161.9 357.6,162.2 		"/>
	</g>
	<g class="st1">
		<polygon class="st2" points="584.8,277.8 582.7,277.4 581.3,278.9 581,276.9 579.1,276 581,275 581.3,272.9 582.7,274.4 
			584.8,274.1 583.8,275.9 		"/>
	</g>
	<g class="st5">
		<polygon class="st2" points="670.5,235.9 668.4,236 667.3,237.7 666.6,235.7 664.6,235.2 666.3,233.9 666.2,231.8 667.9,233 
			669.9,232.3 669.2,234.3 		"/>
	</g>
	<g class="st1">
		<polygon class="st2" points="766.9,213.9 768.7,214.9 770.6,213.9 770.2,216 771.7,217.4 769.7,217.7 768.8,219.6 767.8,217.7 
			765.7,217.5 767.2,216 		"/>
	</g>
	<g class="st1">
		<polygon class="st2" points="746.3,294.3 748.3,295.1 750,294 749.8,296.1 751.4,297.4 749.4,297.9 748.6,299.8 747.5,298 
			745.4,297.9 746.8,296.3 		"/>
	</g>
	<g class="st1">
		<polygon class="st2" points="952.8,251.6 954,253.3 956.1,253.3 954.9,255 955.5,257 953.5,256.3 951.9,257.6 951.9,255.5 
			950.2,254.3 952.2,253.6 		"/>
	</g>
	<g class="st1">
		<polygon class="st2" points="1228.4,256.2 1226.3,256.2 1225.1,257.9 1224.5,255.9 1222.5,255.3 1224.2,254.1 1224.1,252 
			1225.8,253.2 1227.8,252.5 1227.2,254.5 		"/>
	</g>
	<g class="st1">
		<polygon class="st2" points="859.7,253.6 857.7,252.9 856,254.2 856,252.1 854.3,250.8 856.3,250.2 857,248.2 858.2,249.9 
			860.3,249.9 859,251.6 		"/>
	</g>
	<g class="st1">
		<polygon class="st2" points="1363.7,227.1 1365.6,226.1 1365.9,224.1 1367.4,225.5 1369.4,225.1 1368.5,227 1369.5,228.8 
			1367.4,228.5 1366,230.1 1365.6,228 		"/>
	</g>
	<g class="st1">
		<polygon class="st2" points="25.4,302.5 26.8,304.1 28.9,303.8 27.8,305.6 28.7,307.5 26.7,307.1 25.2,308.5 25,306.4 23.1,305.4 
			25,304.6 		"/>
	</g>
	<g class="st1">
		<polygon class="st2" points="139.3,296.9 139.5,299 141.3,300 139.3,300.8 138.9,302.9 137.5,301.3 135.5,301.5 136.6,299.7 
			135.7,297.8 137.8,298.3 		"/>
	</g>
	<g class="st1">
		<polygon class="st2" points="390.7,331.4 389.9,333.3 391,335.1 389,334.9 387.6,336.6 387.2,334.5 385.2,333.8 387,332.7 
			387.1,330.6 388.7,331.9 		"/>
	</g>
	<g class="st1">
		<polygon class="st2" points="398.1,257.4 396.9,259.1 397.7,261 395.7,260.4 394,261.7 394,259.6 392.3,258.5 394.2,257.8 
			394.8,255.8 396.1,257.4 		"/>
	</g>
	<g class="st1">
		<polygon class="st2" points="485.5,317.6 484.4,315.8 482.3,315.8 483.6,314.2 483,312.1 484.9,312.9 486.6,311.7 486.5,313.8 
			488.2,315 486.2,315.6 		"/>
	</g>
	<g class="st1">
		<polygon class="st2" points="660.3,339.7 658.6,338.5 656.7,339.3 657.2,337.3 655.8,335.7 657.9,335.6 659,333.8 659.8,335.8 
			661.8,336.3 660.2,337.6 		"/>
	</g>
	<g class="st6">
		<polygon class="st2" points="789.6,383.2 788.3,384.9 788.9,386.9 787,386.1 785.3,387.3 785.3,385.3 783.7,384 785.7,383.4 
			786.3,381.4 787.5,383.2 		"/>
	</g>
	<g class="st1">
		<polygon class="st2" points="837.3,332.4 836.1,330.6 834,330.7 835.2,329 834.6,327 836.5,327.7 838.2,326.4 838.2,328.5 
			839.9,329.7 837.9,330.4 		"/>
	</g>
	<g class="st1">
		<polygon class="st2" points="925.7,304.9 927.3,303.5 927.1,301.4 928.8,302.5 930.8,301.7 930.3,303.7 931.7,305.3 929.6,305.5 
			928.5,307.3 927.7,305.3 		"/>
	</g>
	<g class="st4">
		<polygon class="st2" points="1017.5,275.1 1016.1,276.6 1016.6,278.7 1014.7,277.8 1012.9,278.9 1013.1,276.9 1011.5,275.5 
			1013.6,275.1 1014.3,273.1 1015.4,274.9 		"/>
	</g>
	<g class="st1">
		<polygon class="st2" points="1125.6,327 1127.4,328.1 1129.3,327.3 1128.8,329.3 1130.2,330.9 1128.1,331 1127,332.8 
			1126.2,330.9 1124.2,330.4 1125.8,329.1 		"/>
	</g>
	<g class="st1">
		<polygon class="st2" points="1192.5,316.2 1193.5,318 1195.6,318.3 1194.1,319.8 1194.5,321.8 1192.6,320.9 1190.8,321.9 
			1191.1,319.8 1189.6,318.4 1191.6,318.1 		"/>
	</g>
	<g class="st3">
		<polygon class="st2" points="1298.7,317 1296.6,316.5 1295.1,317.8 1294.9,315.8 1293.1,314.7 1295.1,313.9 1295.6,311.9 
			1296.9,313.5 1299,313.3 1297.9,315.1 		"/>
	</g>
	<g class="st1">
		<polygon class="st2" points="961.4,151.4 963,150.1 962.8,148 964.5,149.1 966.5,148.3 966,150.3 967.3,151.9 965.3,152 
			964.2,153.8 963.4,151.9 		"/>
	</g>
	<g class="st6">
		<polygon class="st2" points="71.2,385.2 73.2,385.6 74.7,384.2 74.9,386.3 76.8,387.3 74.8,388.2 74.4,390.2 73,388.6 71,388.9 
			72,387.1 		"/>
	</g>
	<g class="st6">
		<polygon class="st2" points="158,397.9 159.1,396.1 158.3,394.2 160.3,394.7 161.9,393.3 162,395.4 163.8,396.4 161.9,397.2 
			161.5,399.3 160.1,397.7 		"/>
	</g>
	<g class="st3">
		<polygon class="st2" points="219.3,348.8 218.7,346.8 216.7,346.1 218.5,344.9 218.5,342.8 220.1,344.1 222.1,343.5 221.4,345.4 
			222.7,347.1 220.6,347.1 		"/>
	</g>
	<g class="st1">
		<polygon class="st2" points="308.7,356.1 310.4,354.8 310.2,352.7 312,353.9 313.9,353.1 313.3,355.1 314.7,356.8 312.6,356.8 
			311.4,358.6 310.7,356.6 		"/>
	</g>
	<g class="st6">
		<polygon class="st2" points="418.2,373.9 420.3,374.3 421.8,372.8 422,374.9 423.9,375.8 422,376.7 421.7,378.8 420.2,377.3 
			418.2,377.6 419.2,375.7 		"/>
	</g>
	<g class="st1">
		<polygon class="st2" points="554.2,339.6 552.1,340.1 551.4,342.1 550.3,340.3 548.2,340.2 549.6,338.6 549,336.6 550.9,337.4 
			552.7,336.2 552.5,338.3 		"/>
	</g>
	<g class="st6">
		<polygon class="st2" points="887.1,386 887.3,388.1 889.1,389.1 887.2,389.9 886.8,392 885.4,390.4 883.3,390.6 884.4,388.8 
			883.5,386.9 885.6,387.4 		"/>
	</g>
	<g class="st1">
		<polygon class="st2" points="935.6,350.2 935.1,352.3 936.5,353.8 934.4,354 933.4,355.8 932.6,353.9 930.5,353.4 932.1,352.1 
			931.9,350 933.7,351.1 		"/>
	</g>
	<g class="st1">
		<polygon class="st2" points="1053.9,324.6 1053.4,326.7 1054.8,328.2 1052.7,328.4 1051.7,330.2 1050.9,328.3 1048.8,327.8 
			1050.4,326.5 1050.2,324.4 1052,325.5 		"/>
	</g>
	<g class="st1">
		<polygon class="st2" points="1111.2,353 1109.7,354.4 1110,356.5 1108.1,355.5 1106.3,356.4 1106.7,354.4 1105.2,352.9 
			1107.3,352.6 1108.2,350.7 1109.1,352.6 		"/>
	</g>
	<g class="st6">
		<polygon class="st2" points="1195.9,379.7 1193.8,379.4 1192.4,380.9 1192.1,378.8 1190.2,377.9 1192.1,376.9 1192.4,374.9 
			1193.8,376.4 1195.9,376 1194.9,377.9 		"/>
	</g>
	<g class="st1">
		<polygon class="st2" points="1387.9,346.9 1386,347.8 1385.7,349.9 1384.3,348.3 1382.2,348.7 1383.2,346.8 1382.2,345 
			1384.3,345.3 1385.8,343.9 1386,345.9 		"/>
	</g>
	<g class="st7">
		<polygon class="st2" points="141.2,429.3 141.3,431.4 143,432.5 141,433.2 140.5,435.2 139.2,433.6 137.1,433.7 138.3,432 
			137.5,430 139.6,430.6 		"/>
	</g>
	<g class="st7">
		<polygon class="st2" points="313.4,463.2 312.1,461.5 310,461.7 311.2,459.9 310.4,458 312.4,458.5 314,457.2 314.1,459.3 
			315.9,460.4 313.9,461.1 		"/>
	</g>
	<g class="st6">
		<polygon class="st2" points="390.9,393.3 388.8,393.4 387.7,395.2 386.9,393.3 384.9,392.8 386.5,391.5 386.3,389.4 388.1,390.5 
			390,389.7 389.5,391.7 		"/>
	</g>
	<g class="st7">
		<polygon class="st2" points="580.9,414.4 578.8,414.2 577.5,415.8 577,413.7 575.1,412.9 576.9,411.9 577.1,409.8 578.6,411.2 
			580.7,410.7 579.8,412.6 		"/>
	</g>
	<g class="st7">
		<polygon class="st2" points="751.2,444.7 749.2,445.1 748.3,447 747.3,445.2 745.2,444.9 746.7,443.4 746.2,441.4 748.1,442.3 
			749.9,441.2 749.7,443.3 		"/>
	</g>
	<g class="st6">
		<polygon class="st2" points="1030,413.3 1028.3,412.1 1026.3,412.8 1027,410.8 1025.7,409.2 1027.8,409.1 1028.9,407.4 
			1029.6,409.4 1031.6,410 1029.9,411.2 		"/>
	</g>
	<g class="st7">
		<polygon class="st2" points="1117.9,423.8 1115.8,424.1 1114.9,426 1113.9,424.1 1111.9,423.8 1113.4,422.3 1113,420.3 
			1114.9,421.2 1116.7,420.3 1116.4,422.3 		"/>
	</g>
	<g class="st7">
		<polygon class="st2" points="1178.9,439.8 1180.9,440.3 1182.4,438.8 1182.6,440.9 1184.5,441.9 1182.6,442.8 1182.1,444.8 
			1180.8,443.3 1178.7,443.5 1179.7,441.7 		"/>
	</g>
	<g class="st6">
		<polygon class="st2" points="1280.7,408.1 1282.8,407.8 1283.7,405.9 1284.6,407.8 1286.7,408 1285.3,409.5 1285.7,411.6 
			1283.8,410.6 1282,411.6 1282.3,409.6 		"/>
	</g>
	<g class="st7">
		<polygon class="st2" points="1388.7,425.1 1386.8,424.2 1385,425.3 1385.3,423.2 1383.7,421.8 1385.8,421.4 1386.7,419.5 
			1387.7,421.3 1389.7,421.5 1388.3,423.1 		"/>
	</g>
	<g class="st7">
		<polygon class="st2" points="56.3,456.4 57.1,454.4 55.8,452.7 57.9,452.8 59.2,451.1 59.8,453.1 61.7,453.8 60,454.9 60,457 
			58.3,455.7 		"/>
	</g>
	<g class="st7">
		<polygon class="st2" points="217.2,463.6 218.5,462 217.9,460 219.9,460.7 221.6,459.5 221.5,461.6 223.1,462.9 221.1,463.5 
			220.4,465.4 219.3,463.7 		"/>
	</g>
	<g class="st7">
		<polygon class="st2" points="393,466.8 390.9,467.1 390,469 389.1,467.1 387,466.8 388.5,465.3 388.2,463.3 390,464.3 
			391.9,463.3 391.5,465.3 		"/>
	</g>
	<g class="st7">
		<polygon class="st2" points="494.9,443.6 497,443.8 498.3,442.1 498.9,444.1 500.8,444.8 499.1,446 499,448.1 497.4,446.7 
			495.4,447.3 496.1,445.4 		"/>
	</g>
	<g class="st6">
		<polygon class="st2" points="650.1,403.7 652.1,404.4 653.8,403.1 653.8,405.2 655.5,406.4 653.5,407 653,409 651.7,407.3 
			649.6,407.4 650.8,405.7 		"/>
	</g>
	<g class="st7">
		<polygon class="st2" points="1006.1,454.7 1004,455.2 1003.3,457.2 1002.2,455.4 1000.1,455.3 1001.4,453.7 1000.9,451.6 
			1002.8,452.4 1004.6,451.3 1004.4,453.4 		"/>
	</g>
	<g class="st7">
		<polygon class="st2" points="1200,482.9 1197.9,482.9 1196.7,484.6 1196.1,482.6 1194.1,482 1195.8,480.8 1195.7,478.7 
			1197.4,479.9 1199.4,479.2 1198.7,481.2 		"/>
	</g>
	<g class="st7">
		<polygon class="st2" points="1293,435.8 1292.2,433.8 1290.2,433.3 1291.8,432 1291.6,429.9 1293.4,431.1 1295.3,430.2 
			1294.8,432.3 1296.2,433.9 1294.1,434 		"/>
	</g>
	<g class="st7">
		<polygon class="st2" points="154.9,537.6 154,539.4 154.9,541.3 152.9,540.9 151.4,542.5 151.1,540.4 149.2,539.5 151.1,538.5 
			151.4,536.5 152.9,537.9 		"/>
	</g>
	<g class="st7">
		<polygon class="st2" points="479.7,537.2 478.8,535.3 476.7,535 478.2,533.6 477.8,531.5 479.7,532.4 481.5,531.4 481.2,533.5 
			482.7,535 480.6,535.3 		"/>
	</g>
	<g class="st7">
		<polygon class="st2" points="569,544.8 567.8,543.1 565.7,543.1 566.9,541.5 566.2,539.5 568.3,540.1 570,538.9 570,540.9 
			571.7,542.1 569.7,542.8 		"/>
	</g>
	<g class="st7">
		<polygon class="st2" points="664.7,541.9 666.7,542.5 668.3,541.1 668.4,543.2 670.2,544.3 668.2,545 667.8,547.1 666.4,545.5 
			664.3,545.6 665.5,543.9 		"/>
	</g>
	<g class="st7">
		<polygon class="st2" points="860.6,486.3 860.1,488.4 861.4,489.9 859.4,490.1 858.3,491.9 857.5,489.9 855.5,489.5 857.1,488.1 
			856.9,486 858.7,487.2 		"/>
	</g>
	<g class="st7">
		<polygon class="st2" points="932.9,507.2 932.8,509.3 934.4,510.6 932.4,511.1 931.7,513.1 930.6,511.4 928.5,511.3 929.8,509.7 
			929.2,507.7 931.1,508.4 		"/>
	</g>
	<g class="st7">
		<polygon class="st2" points="1012.1,537.6 1010.8,539.2 1011.4,541.2 1009.4,540.5 1007.7,541.6 1007.8,539.5 1006.1,538.3 
			1008.2,537.7 1008.9,535.8 1010,537.5 		"/>
	</g>
	<g class="st7">
		<polygon class="st2" points="1111.5,469.8 1113.6,470.3 1115.1,468.8 1115.3,470.9 1117.1,471.9 1115.2,472.8 1114.9,474.8 
			1113.4,473.3 1111.4,473.5 1112.4,471.7 		"/>
	</g>
	<g class="st7">
		<polygon class="st2" points="1276.9,497.6 1275.1,498.6 1274.9,500.7 1273.3,499.2 1271.3,499.7 1272.2,497.8 1271.1,496 
			1273.2,496.2 1274.6,494.7 1275,496.7 		"/>
	</g>
	<g class="st7">
		<polygon class="st2" points="224,519.6 224.7,521.6 226.7,522.1 225.1,523.4 225.2,525.5 223.5,524.3 221.5,525.1 222.1,523.1 
			220.8,521.5 222.8,521.4 		"/>
	</g>
	<g class="st7">
		<polygon class="st2" points="328.6,607.3 330.5,606.5 331,604.5 332.3,606.1 334.4,605.8 333.3,607.6 334.2,609.5 332.2,609.1 
			330.6,610.5 330.4,608.4 		"/>
	</g>
	<g class="st7">
		<polygon class="st2" points="1305.7,532.4 1306,534.5 1307.9,535.4 1306,536.3 1305.7,538.4 1304.2,536.9 1302.2,537.2 
			1303.2,535.4 1302.2,533.5 1304.2,533.9 		"/>
	</g>
	<g class="st7">
		<polygon class="st2" points="55,612.1 55.5,614.1 57.5,614.8 55.7,615.9 55.7,618 54.1,616.7 52.1,617.3 52.8,615.4 51.6,613.6 
			53.7,613.7 		"/>
	</g>
	<g class="st7">
		<polygon class="st2" points="568.4,633.3 570.5,633.7 572,632.3 572.2,634.4 574.1,635.4 572.1,636.2 571.8,638.3 570.4,636.7 
			568.3,637 569.3,635.2 		"/>
	</g>
	<g class="st7">
		<polygon class="st2" points="1362.4,610 1363.3,611.9 1365.4,612.2 1363.9,613.7 1364.2,615.7 1362.4,614.8 1360.5,615.8 
			1360.9,613.7 1359.4,612.2 1361.4,611.9 		"/>
	</g>
	<g class="st7">
		<polygon class="st2" points="678.4,674 676.4,673.5 674.8,674.8 674.7,672.7 672.9,671.5 674.9,670.8 675.5,668.8 676.7,670.5 
			678.8,670.4 677.6,672.1 		"/>
	</g>
	<g id="A1xYqw.tif">
		
			<image style="overflow:visible;" width="1300" height="867" id="Layer_0_5_" xlink:href="AFB894C4D795A0DA.png"  transform="matrix(1 0 0 1 1428 1866.0573)">
		</image>
	</g>
</g>
<g id="mountains">
	<g id="ij3Eyp.tif_1_" class="st8">
		<g>
			
				<linearGradient id="SVGID_2_" gradientUnits="userSpaceOnUse" x1="656.597" y1="-192.041" x2="656.5135" y2="-86.6177" gradientTransform="matrix(1.0782 1.531932e-03 8.543369e-04 -0.6011 -129.7703 584.0273)">
				<stop  offset="0" style="stop-color:#BDCCD4"/>
				<stop  offset="0.1641" style="stop-color:#BDCDCF;stop-opacity:0.8359"/>
				<stop  offset="0.3566" style="stop-color:#BDD2C1;stop-opacity:0.6434"/>
				<stop  offset="0.5634" style="stop-color:#BCD9A9;stop-opacity:0.4366"/>
				<stop  offset="0.7803" style="stop-color:#BBE388;stop-opacity:0.2197"/>
				<stop  offset="1" style="stop-color:#BAEF5F;stop-opacity:0"/>
			</linearGradient>
			<path class="st9" d="M579.6,637.1c3,0,6,0,9,0c2.2,0.3,4.5,0.5,6.7,0.8c17.3,2.6,30.2,11.4,33,21.2c0.6,2.2-0.1,1.7,3.6,2.3
				c6.8,1.1,12.7,2.9,17.2,6c0.8,0.6,1.8,0.8,3.1,0.6c2-0.3,4-0.3,6,0c7.4,0.9,12.1,3.6,14.7,7.5c0.5,0.7,0.8,1.5,1.2,2.3
				c0,1.3,0,2.5,0,3.8c-0.5,0.2-0.5,0.5-0.6,0.7c-0.5,1.2-1.3,2.4-2.5,3.5c-3.2,2.9-7.6,5-13.9,5.2c-2.9,0.1-4.7,0.5-6.6,1.9
				c-5.4,4-12.7,6.5-21.8,7.3c-0.6,0.1-1.3,0-1.8,0.3c-2.6,0-5.1,0-7.7,0c-0.2-0.2-0.6-0.2-1-0.2c-7.6-0.7-14.2-2.5-19.5-5.7
				c-0.7-0.4-1.2-0.4-2-0.1c-8.6,3.3-17.7,3.8-27.3,1.5c-1.5-0.3-2.3-0.3-3.4,0.4c-3.6,2-8,3.4-13.2,3.6
				c-10.2,0.5-19.3-3.3-22.8-8.2c-0.5-0.7-0.8-0.9-2.1-0.5c-8.9,2.3-18.1,2.6-27.2,0.7c-9.4-2-16.1-5.4-18.3-11.1
				c-0.1-0.3,0-0.7-0.5-1c0-1.1,0-2.3,0-3.4c0.4-0.2,0.4-0.4,0.5-0.6c2.1-5.1,7.9-8.4,16.1-10.5c6.2-1.6,12.7-2,19.4-1.4
				c1.1,0.1,1.5,0,1.6-0.7c0.1-0.9,0.5-1.7,1.1-2.5c3-4.7,12.6-7.5,20.5-5.4c0.7,0.2,1.1,0.1,1.3-0.3c0.2-0.3,0.3-0.6,0.6-0.9
				c5.4-7.9,15-13.3,29.5-16C574.7,637.6,577.3,637.6,579.6,637.1z"/>
		</g>
	</g>
	<g>
		<path class="st10" d="M1431.5,542.9c-23.4-10.4-47.1-20.9-70.5-31.3c-8.6-3.8-17.7-8-23.4-15.5c-4.5-6-6.6-13.8-12.1-18.9
			c-7.7-7.2-20.1-7.3-27.4-14.9c-4-4.2-5.8-10-9.7-14.3c-11-11.9-30.6-4.9-44.7,3c-28.7,16.2-56.5,33.8-84.4,51.5
			c-20.2,12.8-40.4,25.6-60.6,38.3c-8.3,5.3-16.8,10.6-26.3,13.2c-15.1,4.2-31.2,1.1-46.8,2.4c-32.5,2.8-60.1,24.2-90.7,35.3
			c-17.8,6.5-37.2,9.7-52.3,21.2c-8,6.1-14.4,14.1-22,20.7c-12.1,10.3-27,16.4-41.3,23.2C779,676,742,701.4,706.1,728
			c-38.7,28.7-76.8,58-113.1,90l847,79V546.6L1431.5,542.9z"/>
		<path class="st11" d="M525.7,754c-14.5-17.8-29-35.7-46.3-51c-30.9-27.4-69.7-45.8-98.2-75.6c-13.2-13.8-24.6-30.3-41.9-38.7
			c-9.7-4.7-20.5-6.5-30.7-10c-28.2-9.8-50.3-32.6-78.6-42.1c-25-8.4-52.4-5.7-78.5-1.5c-22.6,3.6-45.2,8.1-67.7,12.7
			c-29.6,6-57.9,14-86.9,24.6L0,897c72,0,172-52.8,243.4-52.8c106.2,0,180.6-25.2,286.8-25.2c13.6,0,30.7,2.5,43.7-1
			C573.4,799.2,537.6,768.7,525.7,754z"/>
		<path class="st12" d="M477,728.1c17-4.2,34-14.7,47.1-27.2c4.2-4,8-8.4,13.2-11.1c4.2-2.2,8.9-3.1,13.5-4.5
			c35.4-10.4,57.2-44.2,86.9-65.6c10.7-7.7,22.5-13.9,34.5-19.8c-5.1-4.3-10.2-9.1-15.7-12.2c-12.8-7.2-29-5.3-42.4,0.7
			c-18.1,8.2-33.2,23.4-52.8,27.4c-11.9,2.4-24.2,0.3-36.2-1.8c-23.8-4.2-47.6-8.4-71.4-12.6c-14.6-2.6-29.1-5.2-43.9-4.3
			c-22.1,1.4-40.8,19.7-62.8,19.7v132c10,0,20.9-1.8,31.6-0.8H477V728.1z"/>
		<path class="st13" d="M591,819c36.3-32,74.5-61.3,113.1-90c35.9-26.6,72.9-52,113.2-71.2c14.3-6.8,29.2-13,41.3-23.2
			c7.7-6.5,14-14.6,22-20.7c14.5-10.9,32.9-14.4,50.1-20.4c-17.8,1.2-34.2-11.5-47.4-24c-14.2-13.4-30-28.6-49.8-28.6
			c-12.4,0-24.1,6.2-36.5,6.5c-13.3,0.4-26.6-6-39.5-3c-12.9,2.9-21.7,14-31.4,22.8c-25.9,23.6-62.1,33-90.5,53.5
			c-29.7,21.4-51.5,55.2-86.9,65.6c-4.6,1.3-9.3,2.3-13.5,4.5c-5.1,2.7-9,7.1-13.2,11.1C509,714.4,492,725,475,729.1V820h453v-1H591
			z"/>
	</g>
</g>
<g id="clouds">
	<g class="st14">
		<g id="ij3Eyp.tif" class="st15">
			<g>
				
					<linearGradient id="SVGID_3_" gradientUnits="userSpaceOnUse" x1="1098.6462" y1="45.1799" x2="1098.5627" y2="150.6031" gradientTransform="matrix(1.0782 1.531932e-03 8.543369e-04 -0.6011 -129.7703 584.0273)">
					<stop  offset="0" style="stop-color:#BDCCD4"/>
					<stop  offset="0.1641" style="stop-color:#BDCDCF;stop-opacity:0.8359"/>
					<stop  offset="0.3566" style="stop-color:#BDD2C1;stop-opacity:0.6434"/>
					<stop  offset="0.5634" style="stop-color:#BCD9A9;stop-opacity:0.4366"/>
					<stop  offset="0.7803" style="stop-color:#BBE388;stop-opacity:0.2197"/>
					<stop  offset="1" style="stop-color:#BAEF5F;stop-opacity:0"/>
				</linearGradient>
				<path class="st16" d="M1056.4,495.2c3,0,6,0,9,0c2.2,0.3,4.5,0.5,6.7,0.8c17.3,2.6,30.2,11.4,33,21.2c0.6,2.2-0.1,1.7,3.6,2.3
					c6.8,1.1,12.7,2.9,17.2,6c0.8,0.6,1.8,0.8,3.1,0.6c2-0.3,4-0.3,6,0c7.4,0.9,12.1,3.6,14.7,7.5c0.5,0.7,0.8,1.5,1.2,2.3
					c0,1.3,0,2.5,0,3.8c-0.5,0.2-0.5,0.5-0.6,0.7c-0.5,1.2-1.3,2.4-2.5,3.5c-3.2,2.9-7.6,5-13.9,5.2c-2.9,0.1-4.7,0.5-6.6,1.9
					c-5.4,4-12.7,6.5-21.8,7.3c-0.6,0.1-1.3,0-1.8,0.3c-2.6,0-5.1,0-7.7,0c-0.2-0.2-0.6-0.2-1-0.2c-7.6-0.7-14.2-2.5-19.5-5.7
					c-0.7-0.4-1.2-0.4-2-0.1c-8.6,3.3-17.7,3.8-27.3,1.5c-1.5-0.3-2.3-0.3-3.4,0.4c-3.6,2-8,3.4-13.2,3.6
					c-10.2,0.5-19.3-3.3-22.8-8.2c-0.5-0.7-0.8-0.9-2.1-0.5c-8.9,2.3-18.1,2.6-27.2,0.7c-9.4-2-16.1-5.4-18.3-11.1
					c-0.1-0.3,0-0.7-0.5-1c0-1.1,0-2.3,0-3.4c0.4-0.2,0.4-0.4,0.5-0.6c2.1-5.1,7.9-8.4,16.1-10.5c6.2-1.6,12.7-2,19.4-1.4
					c1.1,0.1,1.5,0,1.6-0.7c0.1-0.9,0.5-1.7,1.1-2.5c3-4.7,12.6-7.5,20.5-5.4c0.7,0.2,1.1,0.1,1.3-0.3c0.2-0.3,0.3-0.6,0.6-0.9
					c5.4-7.9,15-13.3,29.5-16C1051.5,495.7,1054.1,495.7,1056.4,495.2z"/>
			</g>
		</g>
		<g id="ij3Eyp.tif_2_" class="st17">
			<g>
				
					<linearGradient id="SVGID_4_" gradientUnits="userSpaceOnUse" x1="271.2992" y1="-111.6776" x2="271.1626" y2="60.6977" gradientTransform="matrix(-1.0782 1.531932e-03 -8.543369e-04 -0.6011 577.9194 584.0273)">
					<stop  offset="0" style="stop-color:#BDCCD4"/>
					<stop  offset="0.1641" style="stop-color:#BDCDCF;stop-opacity:0.8359"/>
					<stop  offset="0.3566" style="stop-color:#BDD2C1;stop-opacity:0.6434"/>
					<stop  offset="0.5634" style="stop-color:#BCD9A9;stop-opacity:0.4366"/>
					<stop  offset="0.7803" style="stop-color:#BBE388;stop-opacity:0.2197"/>
					<stop  offset="1" style="stop-color:#BAEF5F;stop-opacity:0"/>
				</linearGradient>
				<path class="st18" d="M295.2,549.8c25.5,4.4,42.3,13.2,51.8,26.2c0.5,0.5,0.7,1,1.1,1.5c0.4,0.7,1.1,0.8,2.3,0.5
					c13.9-3.4,30.7,1.1,36,8.8c1.1,1.3,1.8,2.6,1.9,4.1c0.2,1.1,0.9,1.3,2.8,1.1c11.8-1,23.2-0.3,34.1,2.3
					c14.4,3.4,24.6,8.8,28.3,17.2c0.2,0.3,0.2,0.7,0.9,1c0,1.8,0,3.8,0,5.6c-0.9,0.5-0.7,1.1-0.9,1.6c-3.9,9.3-15.6,14.9-32.1,18.2
					c-16,3.1-32.1,2.6-47.8-1.1c-2.3-0.7-2.8-0.3-3.7,0.8c-6.1,8-22.1,14.2-40,13.4c-9.1-0.3-16.9-2.6-23.2-5.9
					c-1.9-1.1-3.3-1.1-6-0.7c-16.9,3.8-32.8,2.9-47.9-2.5c-1.4-0.5-2.3-0.5-3.5,0.2c-9.3,5.2-20.9,8.2-34.2,9.3
					c-0.7,0-1.4,0-1.8,0.3c-4.6,0-9,0-13.5,0c-0.9-0.5-2.1-0.3-3.2-0.5c-16-1.3-28.8-5.4-38.3-11.9c-3.3-2.3-6.5-2.9-11.6-3.1
					c-11.1-0.3-18.8-3.8-24.4-8.5c-2.1-1.8-3.5-3.8-4.4-5.7c-0.2-0.3-0.2-0.8-1.1-1.1c0-2.1,0-4.1,0-6.2c0.7-1.3,1.2-2.6,2.1-3.8
					c4.6-6.4,12.8-10.8,25.8-12.3c3.5-0.5,7-0.5,10.5,0c2.3,0.3,4,0,5.4-1c7.9-5.1,18.3-8,30.2-9.8c6.5-1,5.3-0.2,6.3-3.8
					c4.9-16,27.6-30.4,57.9-34.7c3.9-0.5,7.9-0.8,11.8-1.3c5.3,0,10.5,0,15.8,0C286.9,548.8,291.3,548.8,295.2,549.8z"/>
			</g>
		</g>
		<g id="_x34_ZIECE.tif_1_" class="st17">
			<g>
				
					<linearGradient id="SVGID_5_" gradientUnits="userSpaceOnUse" x1="80.6107" y1="393.0311" x2="80.6107" y2="438.6311" gradientTransform="matrix(1 0 0 -1 0 902)">
					<stop  offset="0" style="stop-color:#BDCCD4"/>
					<stop  offset="0.1641" style="stop-color:#BDCDCF;stop-opacity:0.8359"/>
					<stop  offset="0.3566" style="stop-color:#BDD2C1;stop-opacity:0.6434"/>
					<stop  offset="0.5634" style="stop-color:#BCD9A9;stop-opacity:0.4366"/>
					<stop  offset="0.7803" style="stop-color:#BBE388;stop-opacity:0.2197"/>
					<stop  offset="1" style="stop-color:#BAEF5F;stop-opacity:0"/>
				</linearGradient>
				<path class="st19" d="M61.4,463.4c1.8,0,3.6,0,5.4,0c0.2,0.1,0.5,0.1,0.8,0.1c8.1,0.6,14.3,2.7,18.5,6.3
					c0.7,0.6,1.1,0.6,2.2,0.2c4.7-1.8,10-2.5,15.8-1.9c9.3,1,15.4,4.8,15.6,9.6c0,0.9,0.5,1,1.9,0.9c0.5,0,1,0,1.5,0
					c4.9,0,9,0.9,12.4,2.6c4.3,2.2,5.9,4.9,5,8c-1.7,5.3-11.9,8.5-21.9,7.4c-1.8-0.2-1.8-0.2-2.3,0.7c-0.1,0.2-0.3,0.4-0.4,0.6
					c-3.4,6.4-19.6,8.7-29.2,4.2c-0.8-0.4-1.1-0.4-1.6,0.2c-2.1,2.7-5.9,4.6-11,5.8c-2,0.5-4.1,0.6-6.2,0.9c-1.6,0-3.2,0-4.8,0
					c-0.2-0.1-0.6-0.1-0.9-0.1c-5-0.4-9.2-1.6-12.6-3.6c-2.5-1.5-4.1-3.2-4.8-5.1c-0.1-0.4-0.3-0.4-1.1-0.4
					c-1.8,0.1-3.5,0.1-5.3-0.1c-11.1-0.9-19.1-5.8-17.8-11.7c1-4.8,7.9-8.4,17.3-9.2c0.8-0.1,1-0.3,0.9-0.6
					c-0.5-1.8-0.4-3.5,0.6-5.3c2.4-4.1,7.6-7,15.5-8.6C57,463.8,59.2,463.7,61.4,463.4z"/>
			</g>
		</g>
		<g id="_x34_ZIECE.tif_2_" class="st20">
			<g>
				
					<linearGradient id="SVGID_6_" gradientUnits="userSpaceOnUse" x1="1351.9905" y1="227.8935" x2="1351.9905" y2="273.4935" gradientTransform="matrix(1 0 0 -1 0 902)">
					<stop  offset="0" style="stop-color:#BDCCD4"/>
					<stop  offset="0.1641" style="stop-color:#BDCDCF;stop-opacity:0.8359"/>
					<stop  offset="0.3566" style="stop-color:#BDD2C1;stop-opacity:0.6434"/>
					<stop  offset="0.5634" style="stop-color:#BCD9A9;stop-opacity:0.4366"/>
					<stop  offset="0.7803" style="stop-color:#BBE388;stop-opacity:0.2197"/>
					<stop  offset="1" style="stop-color:#BAEF5F;stop-opacity:0"/>
				</linearGradient>
				<path class="st21" d="M1332.8,628.5c1.8,0,3.6,0,5.4,0c0.2,0.1,0.5,0.1,0.8,0.1c8.1,0.6,14.3,2.7,18.5,6.3
					c0.7,0.6,1.1,0.6,2.2,0.2c4.7-1.8,10-2.5,15.8-1.9c9.3,1,15.4,4.8,15.6,9.6c0,0.9,0.5,1,1.9,0.9c0.5,0,1,0,1.5,0
					c4.9,0,9,0.9,12.4,2.6c4.3,2.2,5.9,4.9,5,8c-1.7,5.3-11.9,8.5-21.9,7.4c-1.8-0.2-1.8-0.2-2.3,0.7c-0.1,0.2-0.3,0.4-0.4,0.6
					c-3.4,6.4-19.6,8.7-29.2,4.2c-0.8-0.4-1.1-0.4-1.6,0.2c-2.1,2.7-5.9,4.6-11,5.8c-2,0.5-4.1,0.6-6.2,0.9c-1.6,0-3.2,0-4.8,0
					c-0.2-0.1-0.6-0.1-0.9-0.1c-5-0.4-9.2-1.6-12.6-3.6c-2.5-1.5-4.1-3.2-4.8-5.1c-0.1-0.4-0.3-0.4-1.1-0.4
					c-1.8,0.1-3.5,0.1-5.3-0.1c-11.1-0.9-19.1-5.8-17.8-11.7c1-4.8,7.9-8.4,17.3-9.2c0.8-0.1,1-0.3,0.9-0.6
					c-0.5-1.8-0.4-3.5,0.6-5.3c2.4-4.1,7.6-7,15.5-8.6C1328.4,628.9,1330.6,628.8,1332.8,628.5z"/>
			</g>
		</g>
		<g id="_x34_ZIECE.tif_3_" class="st22">
			<g>
				
					<linearGradient id="SVGID_7_" gradientUnits="userSpaceOnUse" x1="1251.0812" y1="455.2769" x2="1251.0812" y2="500.877" gradientTransform="matrix(1 0 0 -1 0 902)">
					<stop  offset="0" style="stop-color:#BDCCD4"/>
					<stop  offset="0.1641" style="stop-color:#BDCDCF;stop-opacity:0.8359"/>
					<stop  offset="0.3566" style="stop-color:#BDD2C1;stop-opacity:0.6434"/>
					<stop  offset="0.5634" style="stop-color:#BCD9A9;stop-opacity:0.4366"/>
					<stop  offset="0.7803" style="stop-color:#BBE388;stop-opacity:0.2197"/>
					<stop  offset="1" style="stop-color:#BAEF5F;stop-opacity:0"/>
				</linearGradient>
				<path class="st23" d="M1231.9,401.1c1.8,0,3.6,0,5.4,0c0.2,0.1,0.5,0.1,0.8,0.1c8.1,0.6,14.3,2.7,18.5,6.3
					c0.7,0.6,1.1,0.6,2.2,0.2c4.7-1.8,10-2.5,15.8-1.9c9.3,1,15.4,4.8,15.6,9.6c0,0.9,0.5,1,1.9,0.9c0.5,0,1,0,1.5,0
					c4.9,0,9,0.9,12.4,2.6c4.3,2.2,5.9,4.9,5,8c-1.7,5.3-11.9,8.5-21.9,7.4c-1.8-0.2-1.8-0.2-2.3,0.7c-0.1,0.2-0.3,0.4-0.4,0.6
					c-3.4,6.4-19.6,8.7-29.2,4.2c-0.8-0.4-1.1-0.4-1.6,0.2c-2.1,2.7-5.9,4.6-11,5.8c-2,0.5-4.1,0.6-6.2,0.9c-1.6,0-3.2,0-4.8,0
					c-0.2-0.1-0.6-0.1-0.9-0.1c-5-0.4-9.2-1.6-12.6-3.6c-2.5-1.5-4.1-3.2-4.8-5.1c-0.1-0.4-0.3-0.4-1.1-0.4
					c-1.8,0.1-3.5,0.1-5.3-0.1c-11.1-0.9-19.1-5.8-17.8-11.7c1-4.8,7.9-8.4,17.3-9.2c0.8-0.1,1-0.3,0.9-0.6
					c-0.5-1.8-0.4-3.5,0.6-5.3c2.4-4.1,7.6-7,15.5-8.6C1227.5,401.5,1229.7,401.4,1231.9,401.1z"/>
			</g>
		</g>
	</g>
</g>
<g id="ground">
	<path class="st24" d="M0,897c163.1-90.8,406.9-192.4,707.1-195.3c313-3,566.5,102.6,732.9,195.3H0z"/>
</g>
<g id="tent">
	<g>
		<g class="st7">
			<polygon class="st2" points="775.4,602.8 774.2,601.1 772.1,601.1 773.4,599.4 772.7,597.4 774.7,598.1 776.4,596.8 776.4,598.9 
				778.1,600.2 776.1,600.8 			"/>
		</g>
		<g class="st7">
			<polygon class="st2" points="1044.8,598.2 1046.9,598.3 1048.1,596.6 1048.7,598.7 1050.7,599.3 1048.9,600.5 1048.9,602.6 
				1047.3,601.3 1045.3,601.9 1046,599.9 			"/>
		</g>
		<g>
			<linearGradient id="SVGID_8_" gradientUnits="userSpaceOnUse" x1="739.9787" y1="753.2021" x2="930.7563" y2="691.2147">
				<stop  offset="0" style="stop-color:#101E3A"/>
				<stop  offset="0.4499" style="stop-color:#0E1B38"/>
				<stop  offset="0.7427" style="stop-color:#091332"/>
				<stop  offset="0.9903" style="stop-color:#000429"/>
				<stop  offset="1" style="stop-color:#000328"/>
			</linearGradient>
			<path class="st25" d="M749,781v-7.3c0,0,77.2-92.7,96.3-169.5c0,0,27,114.5,116.7,183.3c0,0,0.4,5.4-3.8,9.6L749,781z"/>
			<linearGradient id="SVGID_9_" gradientUnits="userSpaceOnUse" x1="940.6803" y1="775.4954" x2="1027.038" y2="619.7021">
				<stop  offset="0" style="stop-color:#000328"/>
				<stop  offset="1" style="stop-color:#1B1464"/>
			</linearGradient>
			<path class="st26" d="M846,604.2c0,0,85.9,6.2,153.1,0c0,0,52.5,108.3,141.6,152.9l-178.3,30.5C962.3,787.5,865.5,704,846,604.2z
				"/>
			<linearGradient id="SVGID_10_" gradientUnits="userSpaceOnUse" x1="958.96" y1="777.8931" x2="1130.9482" y2="777.8931">
				<stop  offset="0" style="stop-color:#101E3A"/>
				<stop  offset="1" style="stop-color:#2E3192"/>
			</linearGradient>
			<path class="st27" d="M1130.9,758.7c0,0-2.6,2.9-3.7,10.1c0,0-112.4,12.3-168.3,28.3c0,0,5.5-7.5,3.4-9.6L1130.9,758.7z"/>
		</g>
		<linearGradient id="SVGID_11_" gradientUnits="userSpaceOnUse" x1="823.6795" y1="722.8987" x2="864.9774" y2="722.8987">
			<stop  offset="0" style="stop-color:#101E3A"/>
			<stop  offset="0.2858" style="stop-color:#111F3D"/>
			<stop  offset="0.4827" style="stop-color:#142146"/>
			<stop  offset="0.6529" style="stop-color:#192455"/>
			<stop  offset="0.8079" style="stop-color:#21296B"/>
			<stop  offset="0.9513" style="stop-color:#2A2F87"/>
			<stop  offset="1" style="stop-color:#2E3192"/>
		</linearGradient>
		<path class="st28" d="M823.7,785.1c0,0,22.3-91.9,22.3-129.2c0,0-8.4,112.4,19,134L823.7,785.1z"/>
		<linearGradient id="SVGID_12_" gradientUnits="userSpaceOnUse" x1="739.9787" y1="754.2021" x2="930.7563" y2="692.2147">
			<stop  offset="0" style="stop-color:#F7931E"/>
			<stop  offset="0.3344" style="stop-color:#5F4630;stop-opacity:0.3563"/>
			<stop  offset="0.5195" style="stop-color:#101E3A;stop-opacity:0"/>
			<stop  offset="1" style="stop-color:#000328;stop-opacity:0"/>
		</linearGradient>
		<path class="st29" d="M749,782v-7.3c0,0,77.2-92.7,96.3-169.5c0,0,27,114.5,116.7,183.3c0,0,0.4,5.4-3.8,9.6L749,782z"/>
	</g>
</g>
<g id="logs">
	
		<radialGradient id="SVGID_13_" cx="621.7604" cy="787.1328" r="187.4371" gradientTransform="matrix(0.9998 -1.756174e-02 2.048369e-03 0.1166 -3.0394 718.4491)" gradientUnits="userSpaceOnUse">
		<stop  offset="0" style="stop-color:#FBB03B;stop-opacity:0.24"/>
		<stop  offset="0.5926" style="stop-color:#F58D37;stop-opacity:0.11"/>
		<stop  offset="0.7765" style="stop-color:#F58F37;stop-opacity:6.022508e-02"/>
		<stop  offset="0.8428" style="stop-color:#F69635;stop-opacity:4.229737e-02"/>
		<stop  offset="0.89" style="stop-color:#F6A132;stop-opacity:2.951345e-02"/>
		<stop  offset="0.9282" style="stop-color:#F8B22F;stop-opacity:1.918298e-02"/>
		<stop  offset="0.9609" style="stop-color:#F9C82A;stop-opacity:1.033176e-02"/>
		<stop  offset="0.9893" style="stop-color:#FBE324;stop-opacity:2.637163e-03"/>
		<stop  offset="0.999" style="stop-color:#FCEE21;stop-opacity:0"/>
	</radialGradient>
	<path class="st30" d="M883.1,794.7c0.2,13.8-117.2,27-262.4,29.5s-263-6.5-263.3-20.3c-0.2-13.8,117.2-27,262.4-29.5
		C765,771.9,882.8,781,883.1,794.7z"/>
	<polygon class="st31" points="622.4,788.2 612.7,791.2 615.1,797 628.9,791.2 	"/>
	<path class="st32" d="M616.2,794.5c0,1.8-1.1,3-2.9,3c-1.8,0-3.6-1.2-3.6-3c0-1.8,1.7-3.3,3.5-3.3
		C615,791.2,616.2,792.7,616.2,794.5z"/>
	<polygon class="st31" points="645.2,788.2 654.9,791.2 652.5,797 638.7,791.2 	"/>
	<path class="st32" d="M651.3,794.5c0,1.8,1.1,3,2.9,3s3.6-1.2,3.6-3c0-1.8-1.7-3.3-3.5-3.3S651.3,792.7,651.3,794.5z"/>
	<polygon class="st31" points="637.1,791 638.6,801.1 632.3,801.5 631.7,786.4 	"/>
	<path class="st32" d="M634.1,799.3c-1.6,0.8-2.2,2.3-1.4,3.9c0.8,1.6,2.6,2.8,4.3,2c1.6-0.8,2.3-3,1.5-4.6
		C637.7,799,635.8,798.5,634.1,799.3z"/>
</g>
<g id="flame">
	<linearGradient id="SVGID_14_" gradientUnits="userSpaceOnUse" x1="624.9045" y1="791.486" x2="649.3273" y2="736.6315">
		<stop  offset="0" style="stop-color:#F15A24"/>
		<stop  offset="0.5365" style="stop-color:#F58D37"/>
		<stop  offset="0.6222" style="stop-color:#F6A033"/>
		<stop  offset="0.999" style="stop-color:#FCEE21"/>
	</linearGradient>
	<path class="st33" d="M635.9,740.8c-2,4.7-0.7,10.4-3.1,14.9c-1.6-3.5-3.8-6.8-6.5-9.5c-0.3,2.2,2.8,4.4,1.4,6.2
		c-0.3,0.4-0.8,0.6-1.2,0.8c-3.8,2-6.5,5.8-7.2,10c-2.5-1.9-5.4-3.2-8.5-3.8c3.1,2.7,3.5,7.6,1.9,11.4c-0.8,1.9-2.2,3.6-2.6,5.6
		c-0.8,3.4,1,6.9,3.6,9.2c2.6,2.3,6,3.5,9.2,4.7c2.6,0.9,5.2,1.9,8,2.4c5.2,0.9,10.6-0.1,15.6-1.7c3.1-0.9,6.2-2.1,8.4-4.5
		c1.1-1.3,2-2.8,2.6-4.4c3.2-7.3,4.1-15.7,2.5-23.5c0.9,2.7-1.2,5.5-3.6,6.9c-1.8,1.1-4,1.7-6.1,1.7c2.7-6.2,0.5-13.4-2-19.7
		c0.8,2.4-1.3,4.6-3.3,6.2c0.4-2.9,0.8-6.1-0.5-8.7c-0.3-0.7-1.7-1.3-2-1.9c-0.8-1.7,0.1-3.5,0.2-5.4c0-0.8-0.4-4.3-0.4-4.3
		S636.5,739.4,635.9,740.8z"/>
	<path class="st34" d="M645.1,788.3c2.2-2.3,3.4-5.1,4.2-7.8c-2.3,1-4.6,2.1-6.9,3.1c1.3-3.5,1.8-7.2,0.8-10.7
		c-0.9-3.5-3.5-7-7.5-9.2c0.7,3,0.5,6.2-0.7,9.1c-0.2,0.6-0.8,1.3-1.6,1.1c-0.3-0.1-0.5-0.2-0.7-0.4c-1.7-1.2-2.9-2.8-3.5-4.4
		c-3.6,5.4-4.5,11.6-2.4,17.4c0.7,1.9,1.9,3.9,4.5,4.7c0.5-2.4,0.6-4.8,0.5-7.2c1.2,1.4,2.2,2.8,2.9,4.3c0.4,0.8,0.6,3.9,1.5,4.3
		C638.6,794,644.1,789.5,645.1,788.3z"/>
	<path class="st35" d="M630.6,789.9c-1-1.5-1.5-3.3-1.9-5.1c1,0.7,2.1,1.4,3.1,2c-0.6-2.3-0.8-4.7-0.4-7c0.4-2.3,1.6-4.6,3.4-6
		c-0.3,2-0.2,4,0.3,6c0.1,0.4,0.4,0.8,0.7,0.7c0.1,0,0.2-0.1,0.3-0.2c0.8-0.8,1.3-1.8,1.6-2.9c1.6,3.5,2,7.6,1.1,11.4
		c-0.3,1.2-0.9,2.5-2,3.1c-0.2-1.6-0.3-3.1-0.2-4.7c-0.5,0.9-1,1.8-1.3,2.8c-0.2,0.5-0.3,2.5-0.7,2.8
		C633.6,793.6,631.1,790.7,630.6,789.9z"/>
</g>
</svg>
